{"title":"Temper (2015) 720p DVDRip ESubs - 1GB - Team AHD","uid":11972334,"size":1073697495,"categoryP":"video","categoryS":"hd___movies","magnet":"?xt=urn:btih:84f9dee4210da85a1539096e4bd2d205fbff9084&amp;dn=Temper+%282015%29+720p+DVDRip+ESubs+-+1GB+-+Team+AHD&amp;tr=udp%3A%2F%2Ftracker.openbittorrent.com%3A80&amp;tr=udp%3A%2F%2Fopen.demonii.com%3A1337&amp;tr=udp%3A%2F%2Ftracker.coppersurfer.tk%3A6969&amp;tr=udp%3A%2F%2Fexodus.desync.com%3A6969","seeders":1,"leechers":2,"uploader":"Urmit","files":14,"time":1432888508,"description":"[center]\n[img]http://s27.postimg.org/9tvkc8fab/ahd.png[/img]\n\n[img]http://data1.ibtimes.co.in/en/full/549483/junior-ntr-releases-new-poster-temper-fans-go-gaga-over-his-stylish-look.jpg[/img]\n\n[img]http://allsharehd.com/Smileys/default/Info.png[/img]\n\n[code]\nGeneral\n\nComplete name : Temper (2015) 720p DVDRip ESubs - 1GB - Team AHD.mkv\nFormat : Matroska\nFormat version : Version 2\nFile size : 1 021 MiB\nDuration : 2h 25mn\nOverall bit rate : 980 Kbps\nEncoded date : UTC 2015-05-27 21:22:51\nWriting application : mkvmerge v7.7.0 ('Six Voices') 32bit built on Feb 28 2015 23:23:00\nWriting library : libebml v1.3.1 + libmatroska v1.4.2\nDURATION : 02:25:41.280000000\nNUMBER_OF_FRAMES : 273165\nNUMBER_OF_BYTES : 489511680\n\nVideo\nID : 1\nFormat : AVC\nFormat/Info : Advanced Video Codec\nFormat profile : &lt;a class=&quot;__cf_email__&quot; href=&quot;/cdn-cgi/l/email-protection&quot; data-cfemail=&quot;9bd3f2fcf3dbd7a8b5aa&quot;&gt;[email&amp;#160;protected]&lt;/a&gt;&lt;script data-cfhash='f9e31' type=&quot;text/javascript&quot;&gt;\n/* &lt;![CDATA[ */!function(){try{var t=&quot;currentScript&quot;in document?document.currentScript:function(){for(var t=document.getElementsByTagName(&quot;script&quot;),e=t.length;e--;)if(t[e].getAttribute(&quot;data-cfhash&quot;))return t[e]}();if(t&amp;&amp;t.previousSibling){var e,r,n,i,c=t.previousSibling,a=c.getAttribute(&quot;data-cfemail&quot;);if(a){for(e=&quot;&quot;,r=parseInt(a.substr(0,2),16),n=2;a.length-n;n+=2)i=parseInt(a.substr(n,2),16)^r,e+=String.fromCharCode(i);e=document.createTextNode(e),c.parentNode.replaceChild(e,c)}t.parentNode.removeChild(t);}}catch(u){}}()/* ]]&gt; */&lt;/script&gt;\nFormat settings, CABAC : Yes\nFormat settings, ReFrames : 4 frames\nCodec ID : V_MPEG4/ISO/AVC\nDuration : 2h 25mn\nBit rate : 530 Kbps\nWidth : 1 280 pixels\nHeight : 544 pixels\nDisplay aspect ratio : 2.35:1\nFrame rate mode : Constant\nFrame rate : 23.976 fps\nColor space : YUV\nChroma subsampling : 4:2:0\nBit depth : 8 bits\nScan type : Progressive\nBits/(Pixel*Frame) : 0.032\nStream size : 534 MiB (52%)\nWriting library : x264 core 146 r2538 121396c\nDefault : Yes\nForced : No\n\nAudio\nID : 2\nFormat : AC-3\nFormat/Info : Audio Coding 3\nMode extension : CM (complete main)\nFormat settings, Endianness : Big\nCodec ID : A_AC3\nDuration : 2h 25mn\nBit rate mode : Constant\nBit rate : 448 Kbps\nChannel(s) : 6 channels\nChannel positions : Front: L C R, Side: L R, LFE\nSampling rate : 48.0 KHz\nBit depth : 16 bits\nCompression mode : Lossy\nStream size : 467 MiB (46%)\nLanguage : English\nDefault : Yes\nForced : No\n[/code]\n\n[img]http://allsharehd.com/Smileys/default/Screen_Shots.png[/img]\n\n[img]http://s1.postimg.org/gk9jbtgov/Temper_2015_720p_DVDRip_1_GB_Team_AHD_mkv_sna.jpg[/img]\n[img]http://s1.postimg.org/6o8gc6awv/Temper_2015_720p_DVDRip_1_GB_Team_AHD_mkv_sna.jpg[/img]\n[img]http://s1.postimg.org/phu99694v/Temper_2015_720p_DVDRip_1_GB_Team_AHD_mkv_sna.jpg[/img]\n[img]http://s1.postimg.org/m75w9aj7j/Temper_2015_720p_DVDRip_1_GB_Team_AHD_mkv_sna.jpg[/img]\n[img]http://s1.postimg.org/dnmibjav3/Temper_2015_720p_DVDRip_1_GB_Team_AHD_mkv_sna.jpg[/img]\n[img]http://s1.postimg.org/4q1se6if3/Temper_2015_720p_DVDRip_1_GB_Team_AHD_mkv_sna.jpg[/img]\n[img]http://s1.postimg.org/vp5n9c4vz/Temper_2015_720p_DVDRip_1_GB_Team_AHD_mkv_sna.jpg[/img]\n[img]http://s1.postimg.org/4c0gekybj/Temper_2015_720p_DVDRip_1_GB_Team_AHD_mkv_sna.jpg[/img]\n\n[/center]","torrent":{"xt":"urn:btih:84f9dee4210da85a1539096e4bd2d205fbff9084","amp;dn":"Temper+%282015%29+720p+DVDRip+ESubs+-+1GB+-+Team+AHD","amp;tr":["udp%3A%2F%2Ftracker.openbittorrent.com%3A80","udp%3A%2F%2Fopen.demonii.com%3A1337","udp%3A%2F%2Ftracker.coppersurfer.tk%3A6969","udp%3A%2F%2Fexodus.desync.com%3A6969"],"infoHash":"84f9dee4210da85a1539096e4bd2d205fbff9084","infoHashBuffer":{"type":"Buffer","data":[132,249,222,228,33,13,168,90,21,57,9,110,75,210,210,5,251,255,144,132]},"announce":[],"urlList":[]}}